<?xml version="1.0" encoding="UTF-8" standalone="no"?>
<svg
   xmlns:dc="http://purl.org/dc/elements/1.1/"
   xmlns:cc="http://creativecommons.org/ns#"
   xmlns:rdf="http://www.w3.org/1999/02/22-rdf-syntax-ns#"
   xmlns:svg="http://www.w3.org/2000/svg"
   xmlns="http://www.w3.org/2000/svg"
   xmlns:xlink="http://www.w3.org/1999/xlink"
   xmlns:sodipodi="http://sodipodi.sourceforge.net/DTD/sodipodi-0.dtd"
   xmlns:inkscape="http://www.inkscape.org/namespaces/inkscape"
   height="28.497093"
   viewBox="0 0 159.32004 120.68659"
   width="44"
   version="1.1"
   id="svg3783"
   sodipodi:docname="Carabiner_vector_1.svg"
   inkscape:version="0.92.1 r15371">
  <metadata
     id="metadata3787">
    <rdf:RDF>
      <cc:Work
         rdf:about="">
        <dc:format>image/svg+xml</dc:format>
        <dc:type
           rdf:resource="http://purl.org/dc/dcmitype/StillImage" />
        <dc:title></dc:title>
      </cc:Work>
    </rdf:RDF>
  </metadata>
  <sodipodi:namedview
     pagecolor="#ffffff"
     bordercolor="#666666"
     borderopacity="1"
     objecttolerance="10"
     gridtolerance="10"
     guidetolerance="10"
     inkscape:pageopacity="0"
     inkscape:pageshadow="2"
     inkscape:window-width="1920"
     inkscape:window-height="1027"
     id="namedview3785"
     showgrid="false"
     showborder="false"
     fit-margin-top="0"
     fit-margin-left="0"
     fit-margin-right="0"
     fit-margin-bottom="0"
     inkscape:zoom="30.178517"
     inkscape:cx="22"
     inkscape:cy="14.248546"
     inkscape:window-x="1358"
     inkscape:window-y="-8"
     inkscape:window-maximized="1"
     inkscape:current-layer="svg3783" />
  <defs
     id="defs3751">
    <filter
       id="filter3261">
      <feGaussianBlur
         stdDeviation="28.71523"
         id="feGaussianBlur3719" />
    </filter>
    <filter
       id="filter3325">
      <feGaussianBlur
         stdDeviation="7.61522"
         id="feGaussianBlur3722" />
    </filter>
    <filter
       height="1.12804"
       id="filter3383"
       width="1.3836401"
       x="-0.19182"
       y="-0.06402">
      <feGaussianBlur
         stdDeviation="12.10632"
         id="feGaussianBlur3725" />
    </filter>
    <linearGradient
       gradientUnits="userSpaceOnUse"
       id="linearGradient3197"
       spreadMethod="reflect"
       x2="0"
       y1="1158.2334"
       y2="1364.1641">
      <stop
         offset="0"
         stop-color="#3b2c42"
         id="stop3728" />
      <stop
         offset=".4"
         stop-color="#654b6f"
         id="stop3730" />
      <stop
         offset=".6"
         stop-color="#775884"
         id="stop3732" />
      <stop
         offset=".7"
         stop-color="#654b6f"
         id="stop3734" />
      <stop
         offset="1"
         stop-color="#3b2c42"
         id="stop3736" />
    </linearGradient>
    <linearGradient
       gradientUnits="userSpaceOnUse"
       id="linearGradient3271"
       x2="0"
       y1="1188.5801"
       y2="1335.3583">
      <stop
         offset="0"
         stop-color="#a00"
         id="stop3739" />
      <stop
         offset=".6"
         stop-color="#d80000"
         id="stop3741" />
      <stop
         offset="1"
         stop-color="#a00"
         id="stop3743" />
    </linearGradient>
    <pattern
       height="5.18058"
       id="Wavy"
       patternUnits="userSpaceOnUse"
       width="30.06602">
      <path
         d="m7.597.061c-2.518-.248-4.941.241-7.607,1.727v1.273c2.783-1.63 5.183-2.009 7.482-1.781s4.497,1.081 6.781,1.938c4.567,1.713 9.551,3.458 15.813-.157l-.004-1.273c-6.44,3.709-10.816,1.982-15.371.273-2.278-.854-4.576-1.75-7.094-2z"
         id="path3746" />
    </pattern>
    <pattern
       id="pattern4957"
       patternTransform="matrix(2.10612,0,0,2.10612,478.51457,-419.71699)"
       xlink:href="#pattern4953" />
    <pattern
       id="pattern4953"
       patternTransform="matrix(2.10612,0,0,2.10612,478.51457,-419.71699)"
       xlink:href="#Wavy" />
  </defs>
  <g
     transform="matrix(0.13354998,0,0,0.13354998,109.5533,-61.497514)"
     id="g3781">
    <path
       d="m -676.50488,1192.8352 c -36.78268,-91.5876 -48.04928,-193.0781 -30.30485,-290.30776 12.44781,-68.44231 29.32337,-140.31941 74.56202,-195.19573 31.53649,-38.41781 86.0831,-40.92468 131.94582,-36.68739 67.35107,5.61107 127.03355,39.41121 189.26898,62.49549 168.66642,67.39923 338.7339,131.35642 506.19897,201.71873 41.87275,18.69677 88.91899,47.88675 95.20692,97.66386 3.70574,43.663 -10.72966,92.1846 -45.95396,120.158 -25.6041,19.1313 -58.68367,23.3207 -89.79583,22.9317 -23.87288,17.8501 -67.94815,6.1387 -82.52555,23.0548 -11.72872,5.6094 -118.51948,8.8596 -145.03658,10.8994 l 2.47475,120.2389 145.17207,0.1593 c 6.14859,4.8809 47.90538,2.2903 74.1142,2.9152 42.12701,-3.2324 84.02828,-12.1359 123.82551,-26.1918 63.53163,-27.8552 101.32511,-90.7374 132.36124,-149.6819 35.73583,-73.3709 40.32609,-166.73039 -3.55155,-237.7215 C 352.89052,848.13126 273.53436,806.22321 194.73963,776.8173 1.7702,701.08226 -191.86521,626.9031 -387.26481,557.64929 c -87.13065,-31.17685 -186.5387,-38.14952 -274.01258,-4.57564 -47.33766,20.06231 -79.62517,63.20814 -109.14983,103.42456 -61.94773,89.37218 -91.36742,199.38806 -86.45214,307.74223 2.34968,91.55056 10.16842,186.69376 53.0682,269.33716 34.89808,67.7904 110.51056,103.9285 183.26599,113.7313 34.61749,2.8779 69.47766,1.2688 104.20329,2.5187 25.82827,3.1476 53.77485,-8.4011 53.87343,-38.0842 5.34673,-29.4465 9.40068,-59.9444 5.37579,-89.7783 -22.48311,-17.2968 -55.62444,-10.4344 -82.59873,-14.6242 -23.73514,2.7351 -45.07526,-11.2136 -68.31323,-8.6598 -24.17349,5.4994 -47.67968,10.4557 -68.50026,-5.8459 z"
       id="path3753"
       inkscape:connector-curvature="0"
       style="fill:#b3b3b3;stroke:#000000;stroke-width:2.4000001" />
    <path
       d="m 77.47926,1196.3217 c 9.1646,4.8216 8.162,120.7818 0.16505,123.5636 l -136.13262,1.385 c -5.26011,0.053 -7.26475,8.0473 -0.03313,8.4243 l 133.14389,0.1328 0.37239,3.5133 -572.81241,0.01 c -10.09638,-14.4234 -66.68312,-2.0634 -74.90348,-15.4286 -9.17949,-14.9247 -4.71765,-93.9028 0.25717,-110.9349 3.82664,-13.1012 21.71901,-5.328 36.83266,-9.6287 15.11365,-4.3007 13.86656,-7.6781 23.62198,-7.5738 l 459.11456,1.9055 c 0.42439,3.5266 5.78005,5.4748 10.14821,5.4454 z"
       id="path3755"
       style="fill:url(#linearGradient3271);stroke:#000000;stroke-width:2.4000001"
       inkscape:connector-curvature="0" />
    <path
       d="m -480.23672,1159.4334 h 258.96508 c 0,0 7.18594,20.0288 10.86602,28.3653 6.3865,14.4673 1.82139,130.7217 -1.20314,146.7148 -1.67499,8.857 -9.66288,28.4506 -9.66288,28.4506 h -258.96508 c 0,0 -9.20592,-20.1074 -11.44049,-29.2655 -4.05912,-16.6357 -7.05028,-129.6413 -2.33112,-144.6994 2.92617,-9.337 13.77161,-29.5658 13.77161,-29.5658 z"
       id="path3757"
       style="fill:url(#linearGradient3197);stroke:#000000;stroke-width:2.4000001"
       inkscape:connector-curvature="0" />
    <path
       d="m 134.97957,1185.2208 c 27.8709,59.872 16.07195,104.3974 3.90055,149.2068"
       id="path3759"
       inkscape:connector-curvature="0"
       style="fill:none;stroke:#000000;stroke-width:2.4000001" />
    <path
       d="m -596.89732,1199.9266 c -27.87088,59.872 -13.65555,103.9126 -1.48416,148.722"
       id="path3761"
       inkscape:connector-curvature="0"
       style="fill:none;stroke:#000000;stroke-width:2.4000001" />
    <g
       transform="matrix(1.2163,-0.0356814,0.03579244,1.22008,-913.95152,449.18234)"
       id="g3767"
       style="fill:#ffffff;stroke:#000000;stroke-width:1.96929002">
      <path
         d="m 768.90448,680.1922 c 0.95855,14.45619 -21.66483,19.87661 -27.24432,6.31442 -6.03376,-11.57523 7.8103,-25.76616 19.32925,-19.08661 4.69838,2.3826 8.09321,7.42173 7.91507,12.77219 z"
         id="path3763"
         inkscape:connector-curvature="0"
         style="opacity:0.8;fill:#ffffff;stroke:#000000;stroke-width:1.96929002" />
      <path
         d="m 316.14047,669.07166 c 0.95857,14.4562 -21.66482,19.87668 -27.24432,6.31445 -6.03377,-11.57523 7.81031,-25.76615 19.32926,-19.08661 4.69838,2.38258 8.0932,7.4218 7.91506,12.77216 z"
         id="path3765"
         inkscape:connector-curvature="0"
         style="opacity:0.8;fill:#ffffff;stroke:#000000;stroke-width:1.96929002" />
    </g>
    <path
       d="m -84.74928,672.32041 a 3.05967,71.58342 0 1 1 0.31234,141.38231"
       transform="matrix(1.79135,0,0,1.02029,64.16132,504.46031)"
       id="path3769"
       inkscape:connector-curvature="0"
       style="fill:none;stroke:#000000;stroke-width:3.03916001;stroke-linecap:round;stroke-linejoin:round" />
    <path
       d="m -608.3779,777.27287 c -159.79135,-8.7159 -214.99201,-194.65492 -191.74963,-331.2039 41.51544,-243.90327 165.60195,-328.29859 217.8973,-351.54097 52.29535,-23.24238 322.488,90.06421 415.45752,124.92778 92.96952,34.86357 461.07658,144.90821 508.42703,235.32909 39.25934,74.97002 -10e-6,242.59232 -55.20066,270.19265 -58.10594,29.05297 -175.77048,49.39005 -210.63405,31.95826"
       transform="translate(-3.4318828e-8,517.16418)"
       id="path3771"
       inkscape:connector-curvature="0"
       style="fill:none;stroke:#ffffff;stroke-width:32.86968994;filter:url(#filter3261)" />
    <path
       d="m -794.72316,1215.3728 c -21.58645,-68.8696 -28.86681,-113.4462 -40.6361,-224.43827 -6.80863,-64.20989 -0.89931,-99.84122 9.41546,-151.14277 14.06353,-69.9462 50.46281,-138.04592 92.04276,-192.96176 48.7621,-64.40155 73.61767,-72.6413 132.88403,-85.48103 5.78764,-1.25386 38.96758,-19.45457 52.22326,-28.92451 25.58181,0.80183 56.16731,-0.0109 48.06894,2.48897 -37.88666,11.69511 -2.35416,15.57907 -8.35729,22.5924 -8.96829,10.47741 -72.24435,13.88853 -95.02882,19.53041 -47.1259,11.66935 -83.84758,41.63736 -121.6117,99.2457 -31.70491,48.36501 -66.9907,137.46647 -79.45561,200.63586 -13.54923,68.66476 -6.35077,208.6905 16.18688,314.8684 6.85915,32.3146 6.48977,60.0515 -0.79978,60.0515 -1.06117,0 1.23896,-24.3185 -4.93203,-36.4649 z"
       id="path3773"
       inkscape:connector-curvature="0"
       style="fill:#a9a9a9;filter:url(#filter3325)" />
    <path
       d="m 269.02188,293.54086 c -5.81059,29.05298 -6.30906,33.05845 9.67007,49.03758 15.97913,15.97913 62.46389,31.45981 90.06422,73.58662 34.37043,52.46012 46.83723,116.41836 29.40545,165.80842 -17.43178,49.39006 -81.6304,122.8609 -81.6304,133.02944 0,10.16854 10.68213,32.38374 10.68213,32.38374 l 28.42362,-28.42362 c 0,0 -11.35683,-12.63324 -2.64094,-27.15973 6.02559,-10.04264 59.83807,-109.18537 59.83807,-173.10191 0,-66.82184 -23.24238,-107.496 -58.10594,-140.90692 -11.86577,-11.37135 -49.39006,-40.67416 -49.39006,-40.67416 l 5.81059,-21.78973 z"
       transform="translate(-3.4318828e-8,517.16418)"
       id="path3775"
       inkscape:connector-curvature="0"
       style="fill:#999999;fill-opacity:0.75;fill-rule:evenodd;filter:url(#filter3383)" />
    <path
       d="m -429.29381,1157.9763 h 49.70453 c 6.68197,69.843 5.05165,138.3006 0,206.1879 h -49.70453 c -4.30868,-68.7293 -4.52659,-137.4585 0,-206.1879 z"
       id="path3777"
       inkscape:connector-curvature="0"
       style="opacity:0.5;fill:url(#pattern4953)" />
    <path
       d="m -334.79346,1157.9763 h 49.70453 c 6.68197,69.843 5.05165,138.3006 0,206.1879 h -49.70453 c -4.30868,-68.7293 -4.52659,-137.4585 0,-206.1879 z"
       id="path3779"
       inkscape:connector-curvature="0"
       style="opacity:0.5;fill:url(#pattern4957)" />
  </g>
</svg>
